/* XPM */
static char * texture_xpm[] = {
"32 32 993 2",
"  	c #A48668",
". 	c #AA8F6F",
"+ 	c #AD9577",
"@ 	c #B49C7C",
"# 	c #B69E7F",
"$ 	c #B29A7A",
"% 	c #A89070",
"& 	c #B8A58A",
"* 	c #A18163",
"= 	c #A08769",
"- 	c #9D8265",
"; 	c #9B7F63",
"> 	c #A79378",
", 	c #B09C80",
"' 	c #B8A48A",
") 	c #AE997C",
"! 	c #A69074",
"~ 	c #A9977D",
"{ 	c #B09D82",
"] 	c #B49F81",
"^ 	c #BAA688",
"/ 	c #B8A386",
"( 	c #BEAB8D",
"_ 	c #BBA587",
": 	c #B5A083",
"< 	c #B0987B",
"[ 	c #B5A086",
"} 	c #BAA68B",
"| 	c #AE9473",
"1 	c #A89173",
"2 	c #BBA483",
"3 	c #9A8066",
"4 	c #6A6258",
"5 	c #515150",
"6 	c #5E5C57",
"7 	c #676761",
"8 	c #565B5D",
"9 	c #6D6357",
"0 	c #BCA68B",
"a 	c #916854",
"b 	c #906C5D",
"c 	c #946554",
"d 	c #985B46",
"e 	c #9F614A",
"f 	c #99715B",
"g 	c #AE9B82",
"h 	c #826259",
"i 	c #815247",
"j 	c #85594E",
"k 	c #8C675B",
"l 	c #967E69",
"m 	c #B69E7E",
"n 	c #9E6F57",
"o 	c #9E624A",
"p 	c #926A5A",
"q 	c #856456",
"r 	c #8B695C",
"s 	c #8A6E65",
"t 	c #915D49",
"u 	c #9D5C42",
"v 	c #996553",
"w 	c #9C6D5C",
"x 	c #996856",
"y 	c #AA8064",
"z 	c #7E7465",
"A 	c #565A5A",
"B 	c #3F4145",
"C 	c #46494C",
"D 	c #505658",
"E 	c #70665C",
"F 	c #B89E84",
"G 	c #A0654E",
"H 	c #9D6456",
"I 	c #9D5845",
"J 	c #9E553E",
"K 	c #9C5A44",
"L 	c #946955",
"M 	c #AC977F",
"N 	c #926962",
"O 	c #864638",
"P 	c #935142",
"Q 	c #955D53",
"R 	c #9A796F",
"S 	c #AA9578",
"T 	c #865F4F",
"U 	c #995C45",
"V 	c #9B5D46",
"W 	c #985C48",
"X 	c #8F5644",
"Y 	c #99563D",
"Z 	c #9A5439",
"` 	c #9F593C",
" .	c #9C573E",
"..	c #A35C3E",
"+.	c #A56549",
"@.	c #9E795D",
"#.	c #6C655C",
"$.	c #484B4E",
"%.	c #45474A",
"&.	c #515354",
"*.	c #646863",
"=.	c #6B645C",
"-.	c #BBA88E",
";.	c #9B6856",
">.	c #9C6453",
",.	c #A0675C",
"'.	c #9A5D4C",
").	c #945A4A",
"!.	c #906C5C",
"~.	c #AC967E",
"{.	c #916B67",
"].	c #8A4F45",
"^.	c #8E5046",
"/.	c #895952",
"(.	c #886860",
"_.	c #978368",
":.	c #746762",
"<.	c #89645C",
"[.	c #8C5243",
"}.	c #8C5244",
"|.	c #8E503D",
"1.	c #8B503E",
"2.	c #8C4F3E",
"3.	c #A16449",
"4.	c #A5694F",
"5.	c #A55F41",
"6.	c #A46A52",
"7.	c #AF9176",
"8.	c #8F8375",
"9.	c #61605D",
"0.	c #8C8275",
"a.	c #7A746A",
"b.	c #787065",
"c.	c #7A7061",
"d.	c #BEAB91",
"e.	c #A47F6C",
"f.	c #9F7565",
"g.	c #A78E83",
"h.	c #977569",
"i.	c #8E6B5D",
"j.	c #846D5A",
"k.	c #B6A186",
"l.	c #9A7A69",
"m.	c #937568",
"n.	c #826A59",
"o.	c #726050",
"p.	c #AC9576",
"q.	c #816D60",
"r.	c #835E52",
"s.	c #896056",
"t.	c #885F58",
"u.	c #9B5D49",
"v.	c #A26751",
"w.	c #A37D68",
"x.	c #9E715C",
"y.	c #9B6250",
"z.	c #9B5940",
"A.	c #8A6358",
"B.	c #C1AF96",
"C.	c #C0AD94",
"D.	c #C0AD93",
"E.	c #BCAA90",
"F.	c #B1A086",
"G.	c #B5A28B",
"H.	c #CABAA8",
"I.	c #B9A68E",
"J.	c #BAA88F",
"K.	c #C3B199",
"L.	c #D3C3AF",
"M.	c #BCA98E",
"N.	c #BDAA91",
"O.	c #BDAA90",
"P.	c #BFAC93",
"Q.	c #B6A087",
"R.	c #B39A7F",
"S.	c #B49B80",
"T.	c #AF967A",
"U.	c #B59E82",
"V.	c #B9A183",
"W.	c #B59D7E",
"X.	c #BBA282",
"Y.	c #BDA588",
"Z.	c #B6A185",
"`.	c #B8A489",
" +	c #AF977C",
".+	c #AA9375",
"++	c #B79D7A",
"@+	c #B99F80",
"#+	c #BA9C7D",
"$+	c #B7A185",
"%+	c #7C6E67",
"&+	c #76635E",
"*+	c #A37763",
"=+	c #9E6B59",
"-+	c #89736C",
";+	c #957166",
">+	c #A58277",
",+	c #91685E",
"'+	c #936C61",
")+	c #9E6654",
"!+	c #A38A6B",
"~+	c #917167",
"{+	c #967568",
"]+	c #916C60",
"^+	c #916D65",
"/+	c #916F64",
"(+	c #916156",
"_+	c #967268",
":+	c #886C63",
"<+	c #7D655D",
"[+	c #85695E",
"}+	c #886C61",
"|+	c #8E7367",
"1+	c #9C7363",
"2+	c #B19179",
"3+	c #988368",
"4+	c #8C6B56",
"5+	c #7B6357",
"6+	c #977464",
"7+	c #9C7060",
"8+	c #A67B66",
"9+	c #B29D83",
"0+	c #6D5454",
"a+	c #6A5858",
"b+	c #A27D67",
"c+	c #9E5D4F",
"d+	c #936057",
"e+	c #905E53",
"f+	c #986052",
"g+	c #985E4E",
"h+	c #906259",
"i+	c #9B5D4D",
"j+	c #A78C70",
"k+	c #896862",
"l+	c #89564A",
"m+	c #8B5446",
"n+	c #975C4D",
"o+	c #92594A",
"p+	c #9B5743",
"q+	c #8F5F54",
"r+	c #8A5C52",
"s+	c #875E56",
"t+	c #905E55",
"u+	c #8F645B",
"v+	c #9C7F71",
"w+	c #A27B6C",
"x+	c #A58F73",
"y+	c #8A6F5D",
"z+	c #8F5B4E",
"A+	c #935848",
"B+	c #9D5F4F",
"C+	c #91594C",
"D+	c #A07360",
"E+	c #AF9B80",
"F+	c #78534C",
"G+	c #795752",
"H+	c #A8947C",
"I+	c #9E5E50",
"J+	c #90615A",
"K+	c #895E56",
"L+	c #936457",
"M+	c #905E52",
"N+	c #8A5D52",
"O+	c #9B5B4D",
"P+	c #A38C74",
"Q+	c #81635B",
"R+	c #89584C",
"S+	c #975A48",
"T+	c #9A6051",
"U+	c #9D5944",
"V+	c #9D5741",
"W+	c #926056",
"X+	c #8B635B",
"Y+	c #9A5D4B",
"Z+	c #926054",
"`+	c #9F6E5B",
" @	c #9F776A",
".@	c #9E6C5F",
"+@	c #A48E70",
"@@	c #847169",
"#@	c #905E51",
"$@	c #955946",
"%@	c #8E5A4C",
"&@	c #8A6D69",
"*@	c #9F7761",
"=@	c #AF9C84",
"-@	c #77574F",
";@	c #8C6C5B",
">@	c #B49D7F",
",@	c #A3715C",
"'@	c #90786A",
")@	c #826E60",
"!@	c #7C675C",
"~@	c #76655B",
"{@	c #84685B",
"]@	c #9F7260",
"^@	c #AD947A",
"/@	c #957E6F",
"(@	c #8E6E60",
"_@	c #89685A",
":@	c #8C6D62",
"<@	c #86675B",
"[@	c #7A635A",
"}@	c #7F695F",
"|@	c #8F665C",
"1@	c #8B675D",
"2@	c #A47D6B",
"3@	c #A07261",
"4@	c #91695E",
"5@	c #9A7265",
"6@	c #B29E7F",
"7@	c #80786F",
"8@	c #765E57",
"9@	c #7A554B",
"0@	c #72605A",
"a@	c #80716B",
"b@	c #AB8871",
"c@	c #AD9B85",
"d@	c #B8A388",
"e@	c #B29C81",
"f@	c #B59B82",
"g@	c #B49A81",
"h@	c #B29982",
"i@	c #B1977F",
"j@	c #AC937A",
"k@	c #B69E86",
"l@	c #BAA088",
"m@	c #BFA88D",
"n@	c #BFA88E",
"o@	c #C8B196",
"p@	c #C3AE93",
"q@	c #C2AC90",
"r@	c #BCA98F",
"s@	c #C0AC92",
"t@	c #C4AF94",
"u@	c #C1AA8F",
"v@	c #C3AD92",
"w@	c #C3B095",
"x@	c #C6B196",
"y@	c #C5AE90",
"z@	c #C6AE92",
"A@	c #C1A98E",
"B@	c #C0A98E",
"C@	c #C7AF93",
"D@	c #C3AD93",
"E@	c #C0A78B",
"F@	c #C7AD94",
"G@	c #C6AD93",
"H@	c #BEA687",
"I@	c #B49D83",
"J@	c #B29A82",
"K@	c #96675C",
"L@	c #995F52",
"M@	c #9C5D4A",
"N@	c #9C5C46",
"O@	c #9E5E4F",
"P@	c #A16356",
"Q@	c #A06152",
"R@	c #A06356",
"S@	c #9E655B",
"T@	c #A66A5D",
"U@	c #A4695C",
"V@	c #9F6457",
"W@	c #A26C58",
"X@	c #BAA78E",
"Y@	c #AB745D",
"Z@	c #AD6453",
"`@	c #AF6D60",
" #	c #B1826C",
".#	c #AA735E",
"+#	c #C0A88D",
"@#	c #B27261",
"##	c #A4614B",
"$#	c #A2614F",
"%#	c #A6624D",
"&#	c #A46451",
"*#	c #A66556",
"=#	c #AC6959",
"-#	c #B0695C",
";#	c #B06A5E",
">#	c #AB6C5C",
",#	c #AE7966",
"'#	c #B19680",
")#	c #9C6359",
"!#	c #9C6154",
"~#	c #9B5F4B",
"{#	c #995E4E",
"]#	c #9B604F",
"^#	c #9B5E4B",
"/#	c #995B46",
"(#	c #9C5F50",
"_#	c #955E52",
":#	c #9E6154",
"<#	c #975E52",
"[#	c #9B5F50",
"}#	c #AA816A",
"|#	c #A97058",
"1#	c #9A5A47",
"2#	c #945444",
"3#	c #995948",
"4#	c #A26F5D",
"5#	c #BDA188",
"6#	c #B36D5C",
"7#	c #A86756",
"8#	c #9E6051",
"9#	c #9D5943",
"0#	c #A35B3D",
"a#	c #A45B3D",
"b#	c #A55B3F",
"c#	c #A25B44",
"d#	c #A05D51",
"e#	c #A15C4E",
"f#	c #9F5B4C",
"g#	c #B1947E",
"h#	c #A77063",
"i#	c #9F5F4A",
"j#	c #986258",
"k#	c #8D594C",
"l#	c #995C48",
"m#	c #955A46",
"n#	c #8B584C",
"o#	c #89574D",
"p#	c #8C584D",
"q#	c #8D584C",
"r#	c #8C564A",
"s#	c #8A574C",
"t#	c #A3745D",
"u#	c #BBA78F",
"v#	c #A86E56",
"w#	c #975640",
"x#	c #935244",
"y#	c #96594C",
"z#	c #9A6756",
"A#	c #BA9F85",
"B#	c #B56D5C",
"C#	c #AD6856",
"D#	c #A06051",
"E#	c #A46253",
"F#	c #A36056",
"G#	c #A35F53",
"H#	c #A25F4F",
"I#	c #9D594B",
"J#	c #9C5B4E",
"K#	c #995849",
"L#	c #A05B4B",
"M#	c #AB917B",
"N#	c #925E55",
"O#	c #935D51",
"P#	c #905B4C",
"Q#	c #905F54",
"R#	c #88584C",
"S#	c #7D544E",
"T#	c #7D534C",
"U#	c #7E554E",
"V#	c #81554D",
"W#	c #87594F",
"X#	c #7F544D",
"Y#	c #835852",
"Z#	c #9B7461",
"`#	c #BAA68D",
" $	c #AD8270",
".$	c #925F53",
"+$	c #9E695E",
"@$	c #9E665B",
"#$	c #9B6752",
"$$	c #BBA388",
"%$	c #B07060",
"&$	c #AE6857",
"*$	c #AC6656",
"=$	c #AD695B",
"-$	c #AC6B62",
";$	c #AB6A61",
">$	c #AF6C62",
",$	c #A5685E",
"'$	c #985A4C",
")$	c #975849",
"!$	c #D6C7B7",
"~$	c #AD967A",
"{$	c #AE9577",
"]$	c #A68D70",
"^$	c #C9B8A2",
"/$	c #C7B5A0",
"($	c #D3C3B1",
"_$	c #C0AB92",
":$	c #D2C1AE",
"<$	c #C2A98B",
"[$	c #D1C0AC",
"}$	c #BEA88F",
"|$	c #C1A98D",
"1$	c #BAA388",
"2$	c #BCA78D",
"3$	c #B49D82",
"4$	c #B09979",
"5$	c #B49B7D",
"6$	c #AF9678",
"7$	c #B29979",
"8$	c #BDA98D",
"9$	c #B9A187",
"0$	c #BCA48C",
"a$	c #BBA088",
"b$	c #BA9F87",
"c$	c #BEA58C",
"d$	c #BFA88F",
"e$	c #BCA489",
"f$	c #B79D82",
"g$	c #B49981",
"h$	c #B0967E",
"i$	c #886150",
"j$	c #89614E",
"k$	c #896655",
"l$	c #9B705C",
"m$	c #BBA890",
"n$	c #998A78",
"o$	c #7A5A4C",
"p$	c #815D4D",
"q$	c #875F4E",
"r$	c #8B7262",
"s$	c #896860",
"t$	c #84615E",
"u$	c #8A6662",
"v$	c #916962",
"w$	c #89625B",
"x$	c #8A635E",
"y$	c #88635C",
"z$	c #88665F",
"A$	c #83655F",
"B$	c #8A6D63",
"C$	c #8D7366",
"D$	c #9D7E6E",
"E$	c #9B8674",
"F$	c #AF987E",
"G$	c #A06C55",
"H$	c #9E6A53",
"I$	c #9C6850",
"J$	c #9C634A",
"K$	c #9C7059",
"L$	c #917B6A",
"M$	c #9F896F",
"N$	c #8E5240",
"O$	c #8E4F3A",
"P$	c #8C4A33",
"Q$	c #944E35",
"R$	c #BBA88F",
"S$	c #B2A189",
"T$	c #8E5038",
"U$	c #8B4C33",
"V$	c #80432E",
"W$	c #6C4B42",
"X$	c #BDA98F",
"Y$	c #8B605A",
"Z$	c #8E615C",
"`$	c #825751",
" %	c #8B564D",
".%	c #8D5850",
"+%	c #8A5952",
"@%	c #8D5B53",
"#%	c #71504B",
"$%	c #6F504E",
"%%	c #694E4C",
"&%	c #5F4D4C",
"*%	c #755D56",
"=%	c #A1886A",
"-%	c #865B49",
";%	c #9F5939",
">%	c #9F593D",
",%	c #98573B",
"'%	c #97583E",
")%	c #93614A",
"!%	c #A88F74",
"~%	c #925340",
"{%	c #8B4B35",
"]%	c #84432A",
"^%	c #8C4931",
"/%	c #BCA88F",
"(%	c #AA9880",
"_%	c #634339",
":%	c #7A4432",
"<%	c #84442E",
"[%	c #795041",
"}%	c #BDA88F",
"|%	c #885D59",
"1%	c #8C5A53",
"2%	c #865B55",
"3%	c #8B5D56",
"4%	c #835953",
"5%	c #7D524C",
"6%	c #784E48",
"7%	c #664E4B",
"8%	c #5E4A49",
"9%	c #594A4A",
"0%	c #54494B",
"a%	c #5A4B4C",
"b%	c #735E54",
"c%	c #A58C6D",
"d%	c #83523C",
"e%	c #955132",
"f%	c #9A5638",
"g%	c #9C593C",
"h%	c #925439",
"i%	c #8C5F49",
"j%	c #A38A6F",
"k%	c #935D49",
"l%	c #8B4C37",
"m%	c #824937",
"n%	c #895244",
"o%	c #B0967F",
"p%	c #A4917A",
"q%	c #5B413B",
"r%	c #69453B",
"s%	c #6B4337",
"t%	c #826D5A",
"u%	c #B19A80",
"v%	c #90635E",
"w%	c #956662",
"x%	c #986962",
"y%	c #9E6B63",
"z%	c #92685D",
"A%	c #7E5048",
"B%	c #634B49",
"C%	c #534849",
"D%	c #5F4A48",
"E%	c #674E4C",
"F%	c #564A4B",
"G%	c #614E4E",
"H%	c #796459",
"I%	c #A78D6F",
"J%	c #825642",
"K%	c #9A5A3D",
"L%	c #9F6247",
"M%	c #9F6348",
"N%	c #895037",
"O%	c #8A624D",
"P%	c #A68D71",
"Q%	c #B19D85",
"R%	c #B7A38A",
"S%	c #BAA288",
"T%	c #B9A68C",
"U%	c #B59F87",
"V%	c #B29D85",
"W%	c #B29F86",
"X%	c #B29D84",
"Y%	c #B4A085",
"Z%	c #BDA88C",
"`%	c #B89F89",
" &	c #B99F89",
".&	c #BBA68F",
"+&	c #BEAB92",
"@&	c #BDAA92",
"#&	c #AC9781",
"$&	c #B29F87",
"%&	c #B4A189",
"&&	c #B09C86",
"*&	c #AE9C87",
"=&	c #B7A58C",
"-&	c #C0AD92",
";&	c #B8A68D",
">&	c #BAA68E",
",&	c #B7A088",
"'&	c #B9A48B",
")&	c #B9A58C",
"!&	c #AE9677",
"~&	c #A58968",
"{&	c #9F6144",
"]&	c #A16043",
"^&	c #A16144",
"/&	c #A06144",
"(&	c #9F5F41",
"_&	c #A26345",
":&	c #A26549",
"<&	c #A16145",
"[&	c #A26447",
"}&	c #A26649",
"|&	c #A26A4E",
"1&	c #A1674B",
"2&	c #A46D50",
"3&	c #AD997E",
"4&	c #9F6145",
"5&	c #A15E40",
"6&	c #A15F41",
"7&	c #9F6246",
"8&	c #A1684D",
"9&	c #AE8B70",
"0&	c #A7795F",
"a&	c #A26F56",
"b&	c #A4755F",
"c&	c #A3725B",
"d&	c #A3745C",
"e&	c #A37057",
"f&	c #A27057",
"g&	c #A16B51",
"h&	c #A16B52",
"i&	c #A16246",
"j&	c #9E5F43",
"k&	c #AA9170",
"l&	c #9A6044",
"m&	c #9D5A3D",
"n&	c #96573C",
"o&	c #9D5A3E",
"p&	c #A25C3E",
"q&	c #A25C3C",
"r&	c #9E5A3D",
"s&	c #9E5B3D",
"t&	c #9B593B",
"u&	c #9B5943",
"v&	c #9F5B45",
"w&	c #9D6349",
"x&	c #93745A",
"y&	c #95583A",
"z&	c #9C5C3C",
"A&	c #9C5C3E",
"B&	c #9A5D40",
"C&	c #9C5E40",
"D&	c #A27A5B",
"E&	c #93614F",
"F&	c #965A44",
"G&	c #995A42",
"H&	c #9C5C40",
"I&	c #9A5B41",
"J&	c #9C5A40",
"K&	c #965841",
"L&	c #975941",
"M&	c #955941",
"N&	c #995944",
"O&	c #955948",
"P&	c #A58E6E",
"Q&	c #9F5C3F",
"R&	c #9C583B",
"S&	c #94563A",
"T&	c #9B573A",
"U&	c #99573A",
"V&	c #A35C3B",
"W&	c #A45A3A",
"X&	c #A15636",
"Y&	c #A35938",
"Z&	c #9B5131",
"`&	c #9F563A",
" *	c #984F31",
".*	c #945E40",
"+*	c #95765B",
"@*	c #99593A",
"#*	c #995B3B",
"$*	c #9A5D3D",
"%*	c #985E41",
"&*	c #985C3F",
"**	c #A88869",
"=*	c #88685D",
"-*	c #845752",
";*	c #91574B",
">*	c #8F5548",
",*	c #8B4A37",
"'*	c #8D5040",
")*	c #924E3C",
"!*	c #90503F",
"~*	c #945647",
"{*	c #904F3C",
"]*	c #AB9273",
"^*	c #A46F54",
"/*	c #A66649",
"(*	c #965E46",
"_*	c #955538",
":*	c #96563A",
"<*	c #9A6248",
"[*	c #954F2F",
"}*	c #924D2D",
"|*	c #89482C",
"1*	c #895845",
"2*	c #895B49",
"3*	c #82503B",
"4*	c #A27152",
"5*	c #8F745A",
"6*	c #906045",
"7*	c #976043",
"8*	c #965938",
"9*	c #965E43",
"0*	c #905B40",
"a*	c #9D8064",
"b*	c #87695D",
"c*	c #8A5D57",
"d*	c #925A4F",
"e*	c #8F594F",
"f*	c #905A50",
"g*	c #8E5243",
"h*	c #8F5040",
"i*	c #925141",
"j*	c #935346",
"k*	c #924F3B",
"l*	c #8E5040",
"m*	c #B8A488",
"n*	c #BEA98E",
"o*	c #B59F83",
"p*	c #BAA58A",
"q*	c #BAA78D",
"r*	c #B6A38B",
"s*	c #B6A48B",
"t*	c #BBA78E",
"u*	c #B6A289",
"v*	c #B7A388",
"w*	c #B7A085",
"x*	c #B9A68D",
"y*	c #B8A48B",
"z*	c #B5A088",
"A*	c #B19C83",
"B*	c #B9A489",
"C*	c #B09C85",
"D*	c #AE9984",
"E*	c #B19B85",
"F*	c #B6A08A",
"G*	c #B7A28B",
"H*	c #B39D87",
"I*	c #B69F88",
"J*	c #A58F7C",
"K*	c #AE917E",
"L*	c #AB8F7B",
"M*	c #A28674",
"N*	c #565350",
"O*	c #9F8E79",
"P*	c #908170",
"Q*	c #685F57",
"R*	c #7D7064",
"S*	c #504F4E",
"T*	c #635E58",
"U*	c #A08B6E",
"V*	c #A5795F",
"W*	c #9F6A55",
"X*	c #9F6954",
"Y*	c #A36E57",
"Z*	c #A2765F",
"`*	c #A16F59",
" =	c #A2735B",
".=	c #A57E67",
"+=	c #A66C51",
"@=	c #A5775F",
"#=	c #A87F65",
"$=	c #B08D73",
"%=	c #80675B",
"&=	c #835E50",
"*=	c #846154",
"==	c #846659",
"-=	c #8E7060",
";=	c #906E5D",
">=	c #BAA38C",
",=	c #81776C",
"'=	c #85786B",
")=	c #887466",
"!=	c #A68873",
"~=	c #554F4E",
"{=	c #958472",
"]=	c #665450",
"^=	c #554B49",
"/=	c #5A4E49",
"(=	c #4E4948",
"_=	c #514A45",
":=	c #A3896A",
"<=	c #9F6E5A",
"[=	c #985A4A",
"}=	c #985849",
"|=	c #9E5B49",
"1=	c #9D5B48",
"2=	c #965B4C",
"3=	c #915D51",
"4=	c #936157",
"5=	c #986053",
"6=	c #8E5F55",
"7=	c #9B5C44",
"8=	c #976052",
"9=	c #AE977E",
"0=	c #695C56",
"a=	c #514D4F",
"b=	c #57565B",
"c=	c #685353",
"d=	c #5B5455",
"e=	c #836255",
"f=	c #B69F86",
"g=	c #987565",
"h=	c #915D50",
"i=	c #945C4C",
"j=	c #9D5B47",
"k=	c #514C4B",
"l=	c #9C876B",
"m=	c #5B453C",
"n=	c #534641",
"o=	c #61514A",
"p=	c #695950",
"q=	c #504743",
"r=	c #AD9474",
"s=	c #9D7464",
"t=	c #94574C",
"u=	c #8B5449",
"v=	c #8D584B",
"w=	c #7E5349",
"x=	c #82564D",
"y=	c #84584F",
"z=	c #875D55",
"A=	c #84574E",
"B=	c #855851",
"C=	c #855B55",
"D=	c #B2997E",
"E=	c #876357",
"F=	c #494649",
"G=	c #4F4C4D",
"H=	c #4C494A",
"I=	c #565657",
"J=	c #8C5949",
"K=	c #B99B80",
"L=	c #A46852",
"M=	c #A65E47",
"N=	c #A75B43",
"O=	c #A85B42",
"P=	c #5C514C",
"Q=	c #958169",
"R=	c #65554E",
"S=	c #695A51",
"T=	c #564F4C",
"U=	c #584C45",
"V=	c #605149",
"W=	c #AC9475",
"X=	c #8F6C60",
"Y=	c #965B51",
"Z=	c #93564C",
"`=	c #844F44",
" -	c #804F42",
".-	c #724D46",
"+-	c #7D524A",
"@-	c #76514C",
"#-	c #7A544D",
"$-	c #88564A",
"%-	c #7F5147",
"&-	c #7F564D",
"*-	c #B69A7E",
"=-	c #765F54",
"--	c #614B48",
";-	c #644947",
">-	c #614B49",
",-	c #544B49",
"'-	c #846051",
")-	c #B19578",
"!-	c #9D553C",
"~-	c #9C543B",
"{-	c #9E543C",
"]-	c #A0553B",
"^-	c #5D524D",
"/-	c #9C876C",
"(-	c #746353",
"_-	c #71614F",
":-	c #8D7A63",
"<-	c #9D8971",
"[-	c #A08B70",
"}-	c #B39D80",
"|-	c #A28A6D",
"1-	c #9E8266",
"2-	c #9F8569",
"3-	c #9C8368",
"4-	c #9E866D",
"5-	c #A08C76",
"6-	c #A18A73",
"7-	c #917862",
"8-	c #937560",
"9-	c #97785F",
"0-	c #987B61",
"a-	c #AD9074",
"b-	c #BFA98C",
"c-	c #836F5F",
"d-	c #78564A",
"e-	c #7A5D50",
"f-	c #7C6055",
"g-	c #7F6357",
"h-	c #9F806B",
"i-	c #B9A286",
"j-	c #A07C60",
"k-	c #9D765C",
"l-	c #A6856C",
"m-	c #A9765A",
"n-	c #9D8B75",
"o-	c #B6A288",
"p-	c #B6A086",
"q-	c #B29A80",
"r-	c #B59D81",
"s-	c #B39D81",
"t-	c #BCA68A",
"u-	c #AA957E",
"v-	c #AE967E",
"w-	c #B19B82",
"x-	c #AC967C",
"y-	c #B4A088",
"z-	c #BBA78C",
"A-	c #BAA38A",
"B-	c #B5A18A",
"C-	c #B7A48B",
"D-	c #B8A48C",
"E-	c #B9A48C",
"F-	c #B6A18A",
"G-	c #B6A28B",
"H-	c #B7A28A",
"  . + @ # $ % & * = - ; > , ' ) ! ~ { ] ^ / / ( _ : < [ } | 1 2 ",
"3 4 5 6 7 8 9 0 a b c d e f g h i j k l m n o p q r s t u v w x ",
"y z A B C D E F G H I J K L M N O P Q R S T U V W X Y Z `  ...+.",
"@.#.$.%.&.*.=.-.;.>.,.'.).!.~.{.].^./.(._.:.<.[.}.|.1.2.3.4.5.6.",
"7.8.9.0.a.b.c.d.e.f.g.h.i.j.k.l.i.m.n.o.p.q.r.s.t.u.v.w.x.y.z.A.",
"B.C.D.E.F.G.H.I.J.K.L.M.N.O.P.Q.R.S.T.U.V.W.X.Y.Z.`. +.+++@+#+$+",
"%+&+*+=+-+;+>+,+'+)+!+~+{+]+^+/+(+_+:+<+[+}+|+1+2+3+4+5+6+7+8+9+",
"0+a+b+c+d+e+f+g+h+i+j+k+l+m+n+o+p+q+r+s+t+u+v+w+x+y+z+A+B+C+D+E+",
"F+G+H+I+J+K+L+M+N+O+P+Q+R+S+T+U+V+W+X+Y+Z+`+ @.@+@@@#@$@%@&@*@=@",
"-@;@>@,@'@)@!@~@{@]@^@/@(@_@:@<@[@}@|@1@2@3@4@5@6@7@8@9@0@a@b@c@",
"d@e@f@g@h@i@j@k@l@m@n@o@p@q@r@s@t@u@v@w@x@y@z@A@B@C@D@E@F@G@H@I@",
"J@K@L@M@N@O@P@Q@R@S@T@U@V@W@X@Y@Z@`@ #.#+#@###$#%#&#*#=#-#;#>#,#",
"'#)#!#~#{#]#^#/#(#_#:#<#[#}#X@|#1#2#3#4#5#6#7#8#9#0#a#b#c#d#e#f#",
"g#h#i#j#k#l#m#n#o#p#q#r#s#t#u#v#w#x#y#z#A#B#C#D#E#F#G#H#I#J#K#L#",
"M#N#O#P#Q#R#S#T#U#V#W#X#Y#Z#`# $.$+$@$#$$$%$&$*$=$-$;$>$,$:#'$)$",
"!$~${$]$^$/$($_$:$<$[$}$|$1$2$3$4$5$6$7$8$S.9$0$a$b$c$d$e$f$g$h$",
"i$j$k$l$m$n$o$p$q$r$K.s$t$u$v$w$x$y$z$A$B$C$D$E$F$G$H$I$J$K$L$M$",
"N$O$P$Q$R$S$T$U$V$W$X$Y$Z$`$`$ %.%+%@%#%$%%%&%*%=%-%;%>%,%'%)%!%",
"~%{%]%^%/%(%_%:%<%[%}%|%1%2%3%4%5%6%7%8%9%0%a%b%c%d%e%f%g%h%i%j%",
"k%l%m%n%o%p%q%r%s%t%u%v%w%x%y%z%A%B%C%D%E%F%G%H%I%J%K%L%M%N%O%P%",
"Q%R%f@S%T%U%V%W%X%Y%Z%N.`% &.&+&@&#&$&$&%&&&*&=&-&;&>&,&'&)&2$!&",
"~&{&]&^&/&(&_&:&<&[&}&|&1&2&3&4&5&6&7&8&9&0&a&b&c&d&e&f&g&h&i&j&",
"k&l&m&n&o&p&q&r&r&s&t&u&v&w&x&y&z&A&B&C&D&E&F&G&H&I&J&K&L&M&N&O&",
"P&Q&R&S&T&U&V&W&X&Y&Z&`& *.*+*@*#*$*%*&***=*-*;*;*>*,*'*)*!*~*{*",
"]*^*/*(*_*:*<*[*}*|*1*2*3*4*5*6*7*8*9*0*a*b*c*d*e*f*g*h*i*j*k*l*",
"m*n*o*p*q*r*s*t*q*' u*v*v*w*k.' x*y*z*A*B*C*D*E*F*G*H*I*J*K*L*M*",
"N*O*P*Q*R*S*T*U*V*W*X*Y*Z*`* =.=+=@=#=$=0 %=&=*===-=;=>=,='=)=!=",
"~={=]=^=/=(=_=:=<=[=}=|=1=2=3=4=5=6=7=8=9=0=a=b=c=d=e=f=g=h=i=j=",
"k=l=m=n=o=p=q=r=s=t=u=v=w=x=y=z=y=A=B=C=D=E=F=G=H=I=J=K=L=M=N=O=",
"P=Q=R=S=T=U=V=W=X=Y=Z=`= -.-+-@-#-$-%-&-*-=---;->-,-'-)-!-~-{-]-",
"^-/-(-_-:-<-[-}-|-1-2-3-4-5-6-7-8-9-0-a-b-c-d-e-f-g-h-i-j-k-l-m-",
"n-o-[ [ p-q-g@r-s-t-u-v-w-x-y-R%z-A-'&B-C-D-E-F-G*G-H-%&C-C-X@r@"};
